<svg width="536" height="133" viewBox="0 0 536 133" fill="none" xmlns="http://www.w3.org/2000/svg">
<g filter="url(#filter0_d_2006_8)">
<g clip-path="url(#clip0_2006_8)">
<rect x="6" width="125" height="125" rx="25" fill="#EA580C"/>
<g filter="url(#filter1_d_2006_8)">
<rect x="58" width="73" height="125" rx="18" fill="#3B82F6"/>
</g>
<g filter="url(#filter2_d_2006_8)">
<path d="M100.652 77.092H89.7957V125H50.1477V-21.556H98.0557C114.89 -21.556 127.398 -17.7013 135.58 -9.99201C143.761 -2.28267 147.852 10.3827 147.852 28.004C147.852 45.6253 143.997 58.212 136.288 65.764C128.578 73.316 116.7 77.092 100.652 77.092ZM105.136 45.232C106.552 42.5573 107.26 37.7587 107.26 30.836C107.26 23.9133 106.473 19.036 104.9 16.204C103.326 13.372 100.18 11.956 95.4597 11.956H89.7957V49.244H96.4037C100.809 49.244 103.72 47.9067 105.136 45.232Z" fill="white"/>
</g>
</g>
</g>
<g filter="url(#filter3_d_2006_8)">
<path d="M178.024 73.016H172.136V99H150.632V19.512H176.616C185.747 19.512 192.531 21.6027 196.968 25.784C201.405 29.9653 203.624 36.8347 203.624 46.392C203.624 55.9493 201.533 62.776 197.352 66.872C193.171 70.968 186.728 73.016 178.024 73.016ZM180.456 55.736C181.224 54.2853 181.608 51.6827 181.608 47.928C181.608 44.1733 181.181 41.528 180.328 39.992C179.475 38.456 177.768 37.688 175.208 37.688H172.136V57.912H175.72C178.109 57.912 179.688 57.1867 180.456 55.736ZM223.063 64.568V99H201.815V37.688H220.503L221.783 41.4H222.295C224.258 39.1813 226.22 37.7733 228.183 37.176C230.231 36.4933 233.516 36.152 238.039 36.152L237.143 56.632H231.255C227.927 56.632 225.708 57.144 224.599 58.168C223.575 59.192 223.063 61.3253 223.063 64.568ZM261.14 54.456C258.921 54.456 257.471 55.224 256.788 56.76C256.105 58.2107 255.764 60.472 255.764 63.544H266.9V60.472C266.9 56.4613 264.98 54.456 261.14 54.456ZM261.652 36.152C270.441 36.152 276.713 38.2853 280.468 42.552C284.308 46.7333 286.228 52.7493 286.228 60.6C286.228 61.624 285.929 66.232 285.332 74.424H256.148C256.148 80.824 259.092 84.024 264.98 84.024C267.796 84.024 273.3 83.0427 281.492 81.08L283.284 96.952C276.116 99.1707 268.948 100.28 261.78 100.28C252.991 100.28 246.249 97.4213 241.556 91.704C236.863 85.9013 234.516 78.0507 234.516 68.152C234.516 46.8187 243.561 36.152 261.652 36.152ZM312.517 54.84C310.042 54.84 308.378 55.992 307.525 58.296C306.672 60.5147 306.245 64.0133 306.245 68.792C306.245 73.5707 306.629 77.0267 307.397 79.16C308.25 81.2933 309.957 82.36 312.517 82.36C315.162 82.36 318.576 81.8907 322.757 80.952L325.061 97.336C319.173 99.2987 313.925 100.28 309.317 100.28C301.21 100.28 295.066 97.5493 290.885 92.088C286.789 86.6267 284.741 78.9893 284.741 69.176C284.741 59.3627 286.874 51.4267 291.141 45.368C295.408 39.224 301.594 36.152 309.701 36.152C315.76 36.152 321.221 37.176 326.085 39.224L323.781 58.04C318.832 55.9067 315.077 54.84 312.517 54.84ZM322.466 68.152C322.466 56.888 324.599 48.7387 328.866 43.704C333.218 38.6693 339.959 36.152 349.09 36.152C358.306 36.152 365.005 38.6267 369.186 43.576C373.367 48.5253 375.458 56.6747 375.458 68.024C375.458 79.288 373.41 87.48 369.314 92.6C365.218 97.72 358.519 100.28 349.218 100.28C339.917 100.28 333.133 97.72 328.866 92.6C324.599 87.48 322.466 79.3307 322.466 68.152ZM353.186 55.992C352.674 54.2853 351.309 53.432 349.09 53.432C346.871 53.432 345.463 54.2853 344.866 55.992C344.269 57.6987 343.97 61.2827 343.97 66.744V69.816C343.97 75.8747 344.269 79.8 344.866 81.592C345.463 83.384 346.829 84.28 348.962 84.28C351.181 84.28 352.589 83.384 353.186 81.592C353.783 79.8 354.082 76.1307 354.082 70.584V66.872C354.082 61.3253 353.783 57.6987 353.186 55.992ZM397.091 42.168C401.784 38.1573 406.947 36.152 412.579 36.152C418.211 36.152 422.136 37.4747 424.355 40.12C426.659 42.68 427.811 46.5627 427.811 51.768V99H406.051V59.064C406.051 56.9307 405.112 55.864 403.235 55.864C400.846 55.864 398.84 56.4613 397.219 57.656V99H375.715V37.688H395.299L396.579 42.168H397.091ZM454.665 54.456C452.446 54.456 450.996 55.224 450.313 56.76C449.63 58.2107 449.289 60.472 449.289 63.544H460.425V60.472C460.425 56.4613 458.505 54.456 454.665 54.456ZM455.177 36.152C463.966 36.152 470.238 38.2853 473.993 42.552C477.833 46.7333 479.753 52.7493 479.753 60.6C479.753 61.624 479.454 66.232 478.857 74.424H449.673C449.673 80.824 452.617 84.024 458.505 84.024C461.321 84.024 466.825 83.0427 475.017 81.08L476.809 96.952C469.641 99.1707 462.473 100.28 455.305 100.28C446.516 100.28 439.774 97.4213 435.081 91.704C430.388 85.9013 428.041 78.0507 428.041 68.152C428.041 46.8187 437.086 36.152 455.177 36.152ZM530.106 99H507.45L503.098 80.952H502.33L498.234 99H476.218L486.586 69.176L476.218 37.688H499.514L503.226 57.272H503.994L507.962 37.688H529.85L519.61 68.792L530.106 99Z" fill="#1E293B"/>
</g>
<defs>
<filter id="filter0_d_2006_8" x="0" y="0" width="133" height="133" filterUnits="userSpaceOnUse" color-interpolation-filters="sRGB">
<feFlood flood-opacity="0" result="BackgroundImageFix"/>
<feColorMatrix in="SourceAlpha" type="matrix" values="0 0 0 0 0 0 0 0 0 0 0 0 0 0 0 0 0 0 127 0" result="hardAlpha"/>
<feOffset dx="-2" dy="4"/>
<feGaussianBlur stdDeviation="2"/>
<feComposite in2="hardAlpha" operator="out"/>
<feColorMatrix type="matrix" values="0 0 0 0 0 0 0 0 0 0 0 0 0 0 0 0 0 0 0.25 0"/>
<feBlend mode="normal" in2="BackgroundImageFix" result="effect1_dropShadow_2006_8"/>
<feBlend mode="normal" in="SourceGraphic" in2="effect1_dropShadow_2006_8" result="shape"/>
</filter>
<filter id="filter1_d_2006_8" x="52" y="0" width="81" height="133" filterUnits="userSpaceOnUse" color-interpolation-filters="sRGB">
<feFlood flood-opacity="0" result="BackgroundImageFix"/>
<feColorMatrix in="SourceAlpha" type="matrix" values="0 0 0 0 0 0 0 0 0 0 0 0 0 0 0 0 0 0 127 0" result="hardAlpha"/>
<feOffset dx="-2" dy="4"/>
<feGaussianBlur stdDeviation="2"/>
<feComposite in2="hardAlpha" operator="out"/>
<feColorMatrix type="matrix" values="0 0 0 0 0 0 0 0 0 0 0 0 0 0 0 0 0 0 0.25 0"/>
<feBlend mode="normal" in2="BackgroundImageFix" result="effect1_dropShadow_2006_8"/>
<feBlend mode="normal" in="SourceGraphic" in2="effect1_dropShadow_2006_8" result="shape"/>
</filter>
<filter id="filter2_d_2006_8" x="44.1477" y="-21.556" width="105.704" height="154.556" filterUnits="userSpaceOnUse" color-interpolation-filters="sRGB">
<feFlood flood-opacity="0" result="BackgroundImageFix"/>
<feColorMatrix in="SourceAlpha" type="matrix" values="0 0 0 0 0 0 0 0 0 0 0 0 0 0 0 0 0 0 127 0" result="hardAlpha"/>
<feOffset dx="-2" dy="4"/>
<feGaussianBlur stdDeviation="2"/>
<feComposite in2="hardAlpha" operator="out"/>
<feColorMatrix type="matrix" values="0 0 0 0 0 0 0 0 0 0 0 0 0 0 0 0 0 0 0.25 0"/>
<feBlend mode="normal" in2="BackgroundImageFix" result="effect1_dropShadow_2006_8"/>
<feBlend mode="normal" in="SourceGraphic" in2="effect1_dropShadow_2006_8" result="shape"/>
</filter>
<filter id="filter3_d_2006_8" x="144.632" y="19.512" width="387.474" height="88.768" filterUnits="userSpaceOnUse" color-interpolation-filters="sRGB">
<feFlood flood-opacity="0" result="BackgroundImageFix"/>
<feColorMatrix in="SourceAlpha" type="matrix" values="0 0 0 0 0 0 0 0 0 0 0 0 0 0 0 0 0 0 127 0" result="hardAlpha"/>
<feOffset dx="-2" dy="4"/>
<feGaussianBlur stdDeviation="2"/>
<feComposite in2="hardAlpha" operator="out"/>
<feColorMatrix type="matrix" values="0 0 0 0 0 0 0 0 0 0 0 0 0 0 0 0 0 0 0.25 0"/>
<feBlend mode="normal" in2="BackgroundImageFix" result="effect1_dropShadow_2006_8"/>
<feBlend mode="normal" in="SourceGraphic" in2="effect1_dropShadow_2006_8" result="shape"/>
</filter>
<clipPath id="clip0_2006_8">
<rect x="6" width="125" height="125" rx="25" fill="white"/>
</clipPath>
</defs>
</svg>
