<svg width="530" height="125" viewBox="0 0 530 125" fill="none" xmlns="http://www.w3.org/2000/svg">
<g filter="url(#filter0_d_2006_8)">
<g clip-path="url(#clip0_2006_8)">
<rect y="62.5" width="62" height="62" rx="18" transform="rotate(-45 0 62.5)" fill="#EA580C"/>
<g filter="url(#filter1_d_2006_8)">
<rect x="15.0238" y="46.6132" width="40.4652" height="62.5499" rx="8" transform="rotate(-45 15.0238 46.6132)" fill="#3B82F6"/>
</g>
<g filter="url(#filter2_d_2006_8)">
<path d="M64.3587 97.1434L7.79017 40.5748L26.9042 21.4608C31.342 17.023 35.7706 14.1964 40.19 12.9811C44.6094 11.7289 48.8539 11.775 52.9235 13.1192C56.993 14.4634 60.6943 16.802 64.0273 20.135C67.3602 23.468 69.7081 27.1785 71.0707 31.2664C72.4518 35.336 72.5438 39.5897 71.3469 44.0275C70.1316 48.4469 67.3234 52.8571 62.9224 57.2581L49.2222 70.9583L43.1455 64.8816L56.6247 51.4024C59.6631 48.364 61.5782 45.3994 62.37 42.5083C63.1618 39.6173 63.0789 36.8644 62.1214 34.2495C61.1638 31.5979 59.5526 29.1396 57.2876 26.8746C55.0227 24.6097 52.5736 23.0076 49.9404 22.0685C47.3255 21.111 44.5818 21.0557 41.7092 21.9028C38.8182 22.7314 35.8351 24.6833 32.7599 27.7585L20.717 39.8014L71.2088 90.2933L64.3587 97.1434Z" fill="white"/>
</g>
</g>
</g>
<g filter="url(#filter3_d_2006_8)">
<path d="M105.954 96V30.5455H132.992C137.893 30.5455 142.122 31.5043 145.68 33.4219C149.26 35.3182 152.019 37.9709 153.958 41.38C155.897 44.7678 156.866 48.7095 156.866 53.2053C156.866 57.7223 155.876 61.6747 153.894 65.0625C151.934 68.429 149.132 71.0391 145.489 72.8928C141.845 74.7464 137.52 75.6733 132.513 75.6733H115.83V63.2088H129.572C131.959 63.2088 133.951 62.7933 135.549 61.9624C137.168 61.1314 138.393 59.9702 139.224 58.4787C140.055 56.9659 140.471 55.2081 140.471 53.2053C140.471 51.1811 140.055 49.4339 139.224 47.9638C138.393 46.4723 137.168 45.3217 135.549 44.5121C133.93 43.7024 131.938 43.2976 129.572 43.2976H121.774V96H105.954ZM160.165 96V46.9091H175.346V55.858H175.857C176.752 52.6193 178.212 50.2116 180.236 48.6349C182.26 47.0369 184.614 46.2379 187.299 46.2379C188.023 46.2379 188.769 46.2912 189.536 46.3977C190.303 46.483 191.017 46.6214 191.678 46.8132V60.3963C190.932 60.1406 189.952 59.9382 188.737 59.7891C187.544 59.6399 186.479 59.5653 185.541 59.5653C183.688 59.5653 182.015 59.9808 180.523 60.8118C179.053 61.6214 177.892 62.7614 177.04 64.2315C176.209 65.6804 175.793 67.3849 175.793 69.3452V96H160.165ZM213.944 96.9268C208.809 96.9268 204.377 95.9148 200.649 93.8906C196.941 91.8452 194.086 88.9368 192.083 85.1655C190.102 81.3729 189.111 76.8665 189.111 71.6463C189.111 66.5753 190.113 62.1435 192.115 58.3509C194.118 54.5369 196.941 51.5753 200.585 49.4659C204.228 47.3352 208.522 46.2699 213.465 46.2699C216.959 46.2699 220.155 46.8132 223.053 47.8999C225.951 48.9865 228.454 50.5952 230.564 52.7259C232.673 54.8565 234.314 57.4879 235.485 60.62C236.657 63.7308 237.243 67.2997 237.243 71.3267V75.2259H194.576V66.1491H222.701C222.68 64.4872 222.286 63.0064 221.519 61.7067C220.752 60.407 219.697 59.3949 218.355 58.6705C217.034 57.9247 215.51 57.5518 213.784 57.5518C212.037 57.5518 210.471 57.946 209.086 58.7344C207.701 59.5014 206.604 60.5561 205.794 61.8984C204.985 63.2195 204.559 64.7216 204.516 66.4048V75.6413C204.516 77.6442 204.91 79.402 205.699 80.9148C206.487 82.4062 207.605 83.5675 209.054 84.3984C210.503 85.2294 212.229 85.6449 214.232 85.6449C215.617 85.6449 216.874 85.4531 218.003 85.0696C219.132 84.6861 220.102 84.1214 220.912 83.3757C221.721 82.63 222.328 81.7138 222.733 80.6271L237.083 81.0426C236.487 84.2599 235.176 87.0618 233.152 89.4482C231.15 91.8132 228.518 93.6562 225.258 94.9773C221.998 96.277 218.227 96.9268 213.944 96.9268ZM263.641 96.9268C258.463 96.9268 254.021 95.8615 250.313 93.7308C246.627 91.6001 243.794 88.6385 241.812 84.8459C239.83 81.032 238.84 76.6214 238.84 71.6143C238.84 66.5859 239.83 62.1754 241.812 58.3828C243.815 54.5689 246.659 51.5966 250.345 49.4659C254.053 47.3352 258.474 46.2699 263.609 46.2699C268.147 46.2699 272.1 47.0902 275.466 48.7308C278.854 50.3714 281.496 52.6939 283.392 55.6982C285.31 58.6811 286.322 62.1861 286.428 66.2131H271.823C271.524 63.6989 270.672 61.728 269.266 60.3004C267.881 58.8729 266.07 58.1591 263.833 58.1591C262.021 58.1591 260.434 58.6705 259.07 59.6932C257.707 60.6946 256.642 62.1861 255.874 64.1676C255.129 66.1278 254.756 68.5568 254.756 71.4545C254.756 74.3523 255.129 76.8026 255.874 78.8054C256.642 80.7869 257.707 82.2891 259.07 83.3118C260.434 84.3132 262.021 84.8139 263.833 84.8139C265.281 84.8139 266.56 84.505 267.668 83.8871C268.797 83.2692 269.724 82.3636 270.448 81.1705C271.173 79.956 271.631 78.4858 271.823 76.7599H286.428C286.279 80.8082 285.267 84.3452 283.392 87.3707C281.539 90.3963 278.928 92.7507 275.562 94.4339C272.217 96.0959 268.243 96.9268 263.641 96.9268ZM312.842 96.9268C307.686 96.9268 303.254 95.8722 299.547 93.7628C295.86 91.6321 293.016 88.6705 291.013 84.8778C289.032 81.0639 288.041 76.6428 288.041 71.6143C288.041 66.5646 289.032 62.1435 291.013 58.3509C293.016 54.5369 295.86 51.5753 299.547 49.4659C303.254 47.3352 307.686 46.2699 312.842 46.2699C317.998 46.2699 322.419 47.3352 326.105 49.4659C329.813 51.5753 332.657 54.5369 334.639 58.3509C336.642 62.1435 337.643 66.5646 337.643 71.6143C337.643 76.6428 336.642 81.0639 334.639 84.8778C332.657 88.6705 329.813 91.6321 326.105 93.7628C322.419 95.8722 317.998 96.9268 312.842 96.9268ZM312.938 85.1335C314.813 85.1335 316.4 84.5582 317.7 83.4077C319 82.2571 319.99 80.6591 320.672 78.6136C321.375 76.5682 321.727 74.2031 321.727 71.5185C321.727 68.7912 321.375 66.4048 320.672 64.3594C319.99 62.3139 319 60.7159 317.7 59.5653C316.4 58.4148 314.813 57.8395 312.938 57.8395C310.999 57.8395 309.358 58.4148 308.016 59.5653C306.695 60.7159 305.683 62.3139 304.98 64.3594C304.298 66.4048 303.957 68.7912 303.957 71.5185C303.957 74.2031 304.298 76.5682 304.98 78.6136C305.683 80.6591 306.695 82.2571 308.016 83.4077C309.358 84.5582 310.999 85.1335 312.938 85.1335ZM356.778 68.0028V96H341.149V46.9091H356.011V55.9219H356.554C357.641 52.9176 359.494 50.5632 362.115 48.8587C364.736 47.1328 367.857 46.2699 371.479 46.2699C374.931 46.2699 377.925 47.0476 380.46 48.603C383.017 50.1371 384.999 52.2891 386.405 55.0589C387.832 57.8075 388.536 61.0249 388.514 64.7109V96H372.886V67.7791C372.907 65.0518 372.214 62.9212 370.808 61.3871C369.423 59.853 367.495 59.0859 365.023 59.0859C363.383 59.0859 361.934 59.4482 360.677 60.1726C359.441 60.8757 358.482 61.8878 357.8 63.2088C357.14 64.5298 356.799 66.1278 356.778 68.0028ZM416.638 96.9268C411.503 96.9268 407.071 95.9148 403.342 93.8906C399.635 91.8452 396.78 88.9368 394.777 85.1655C392.795 81.3729 391.805 76.8665 391.805 71.6463C391.805 66.5753 392.806 62.1435 394.809 58.3509C396.812 54.5369 399.635 51.5753 403.278 49.4659C406.922 47.3352 411.215 46.2699 416.158 46.2699C419.653 46.2699 422.849 46.8132 425.746 47.8999C428.644 48.9865 431.148 50.5952 433.257 52.7259C435.366 54.8565 437.007 57.4879 438.179 60.62C439.351 63.7308 439.937 67.2997 439.937 71.3267V75.2259H397.27V66.1491H425.395C425.373 64.4872 424.979 63.0064 424.212 61.7067C423.445 60.407 422.39 59.3949 421.048 58.6705C419.727 57.9247 418.204 57.5518 416.478 57.5518C414.731 57.5518 413.165 57.946 411.78 58.7344C410.395 59.5014 409.297 60.5561 408.488 61.8984C407.678 63.2195 407.252 64.7216 407.209 66.4048V75.6413C407.209 77.6442 407.604 79.402 408.392 80.9148C409.18 82.4062 410.299 83.5675 411.748 84.3984C413.197 85.2294 414.922 85.6449 416.925 85.6449C418.31 85.6449 419.567 85.4531 420.697 85.0696C421.826 84.6861 422.795 84.1214 423.605 83.3757C424.415 82.63 425.022 81.7138 425.427 80.6271L439.777 81.0426C439.18 84.2599 437.87 87.0618 435.846 89.4482C433.843 91.8132 431.211 93.6562 427.952 94.9773C424.692 96.277 420.92 96.9268 416.638 96.9268ZM456.011 46.9091L464.097 63.081L472.471 46.9091H488.227L474.516 71.4545L488.738 96H473.11L464.097 79.7003L455.308 96H439.456L453.71 71.4545L440.159 46.9091H456.011Z" fill="#1E293B"/>
</g>
<defs>
<filter id="filter0_d_2006_8" x="-6" y="18.6594" width="95.6812" height="95.6812" filterUnits="userSpaceOnUse" color-interpolation-filters="sRGB">
<feFlood flood-opacity="0" result="BackgroundImageFix"/>
<feColorMatrix in="SourceAlpha" type="matrix" values="0 0 0 0 0 0 0 0 0 0 0 0 0 0 0 0 0 0 127 0" result="hardAlpha"/>
<feOffset dx="-2" dy="4"/>
<feGaussianBlur stdDeviation="2"/>
<feComposite in2="hardAlpha" operator="out"/>
<feColorMatrix type="matrix" values="0 0 0 0 0 0 0 0 0 0 0 0 0 0 0 0 0 0 0.25 0"/>
<feBlend mode="normal" in2="BackgroundImageFix" result="effect1_dropShadow_2006_8"/>
<feBlend mode="normal" in="SourceGraphic" in2="effect1_dropShadow_2006_8" result="shape"/>
</filter>
<filter id="filter1_d_2006_8" x="12.3376" y="21.3137" width="74.2153" height="74.2153" filterUnits="userSpaceOnUse" color-interpolation-filters="sRGB">
<feFlood flood-opacity="0" result="BackgroundImageFix"/>
<feColorMatrix in="SourceAlpha" type="matrix" values="0 0 0 0 0 0 0 0 0 0 0 0 0 0 0 0 0 0 127 0" result="hardAlpha"/>
<feOffset dx="-2" dy="4"/>
<feGaussianBlur stdDeviation="2"/>
<feComposite in2="hardAlpha" operator="out"/>
<feColorMatrix type="matrix" values="0 0 0 0 0 0 0 0 0 0 0 0 0 0 0 0 0 0 0.25 0"/>
<feBlend mode="normal" in2="BackgroundImageFix" result="effect1_dropShadow_2006_8"/>
<feBlend mode="normal" in="SourceGraphic" in2="effect1_dropShadow_2006_8" result="shape"/>
</filter>
<filter id="filter2_d_2006_8" x="1.79016" y="2.23637" width="102.907" height="102.907" filterUnits="userSpaceOnUse" color-interpolation-filters="sRGB">
<feFlood flood-opacity="0" result="BackgroundImageFix"/>
<feColorMatrix in="SourceAlpha" type="matrix" values="0 0 0 0 0 0 0 0 0 0 0 0 0 0 0 0 0 0 127 0" result="hardAlpha"/>
<feOffset dx="-2" dy="4"/>
<feGaussianBlur stdDeviation="2"/>
<feComposite in2="hardAlpha" operator="out"/>
<feColorMatrix type="matrix" values="0 0 0 0 0 0 0 0 0 0 0 0 0 0 0 0 0 0 0.25 0"/>
<feBlend mode="normal" in2="BackgroundImageFix" result="effect1_dropShadow_2006_8"/>
<feBlend mode="normal" in="SourceGraphic" in2="effect1_dropShadow_2006_8" result="shape"/>
</filter>
<filter id="filter3_d_2006_8" x="99.9538" y="30.5455" width="390.784" height="74.3814" filterUnits="userSpaceOnUse" color-interpolation-filters="sRGB">
<feFlood flood-opacity="0" result="BackgroundImageFix"/>
<feColorMatrix in="SourceAlpha" type="matrix" values="0 0 0 0 0 0 0 0 0 0 0 0 0 0 0 0 0 0 127 0" result="hardAlpha"/>
<feOffset dx="-2" dy="4"/>
<feGaussianBlur stdDeviation="2"/>
<feComposite in2="hardAlpha" operator="out"/>
<feColorMatrix type="matrix" values="0 0 0 0 0 0 0 0 0 0 0 0 0 0 0 0 0 0 0.25 0"/>
<feBlend mode="normal" in2="BackgroundImageFix" result="effect1_dropShadow_2006_8"/>
<feBlend mode="normal" in="SourceGraphic" in2="effect1_dropShadow_2006_8" result="shape"/>
</filter>
<clipPath id="clip0_2006_8">
<rect y="62.5" width="62" height="62" rx="18" transform="rotate(-45 0 62.5)" fill="white"/>
</clipPath>
</defs>
</svg>
